# MagicaVoxel @ Ephtracy

# material
mtllib bed.mtl
usemtl palette

# normals
vn -1 0 0
vn 1 0 0
vn 0 0 1
vn 0 0 -1
vn 0 -1 0
vn 0 1 0

# texcoords
vt 0.177734 0.5
vt 0.310547 0.5
vt 0.736328 0.5
vt 0.771484 0.5
vt 0.962891 0.5
vt 0.994141 0.5

# verts
v -9 0 -16
v -9 0 -18
v -9 12 -16
v -9 12 -18
v -8 0 17
v -8 0 -16
v -8 1 17
v -8 1 -16
v -8 4 17
v -8 4 -16
v -8 6 17
v -8 6 -16
v -7 6 14
v -7 6 13
v -7 6 11
v -7 6 10
v -7 6 8
v -7 6 7
v -7 6 5
v -7 6 4
v -7 6 2
v -7 6 1
v -7 6 -1
v -7 6 -2
v -7 6 -4
v -7 6 -5
v -7 6 -7
v -7 6 -8
v -7 6 -14
v -7 7 14
v -7 7 13
v -7 7 11
v -7 7 10
v -7 7 8
v -7 7 7
v -7 7 5
v -7 7 4
v -7 7 2
v -7 7 1
v -7 7 -1
v -7 7 -2
v -7 7 -4
v -7 7 -5
v -7 7 -7
v -7 7 -8
v -7 7 -10
v -7 8 -10
v -7 8 -14
v -6 6 15
v -6 6 14
v -6 7 15
v -6 7 14
v 6 6 15
v 6 6 14
v 6 7 15
v 6 7 14
v 7 6 14
v 7 6 13
v 7 6 11
v 7 6 10
v 7 6 8
v 7 6 7
v 7 6 5
v 7 6 4
v 7 6 2
v 7 6 1
v 7 6 -1
v 7 6 -2
v 7 6 -4
v 7 6 -5
v 7 6 -7
v 7 6 -8
v 7 6 -14
v 7 7 14
v 7 7 13
v 7 7 11
v 7 7 10
v 7 7 8
v 7 7 7
v 7 7 5
v 7 7 4
v 7 7 2
v 7 7 1
v 7 7 -1
v 7 7 -2
v 7 7 -4
v 7 7 -5
v 7 7 -7
v 7 7 -8
v 7 7 -10
v 7 8 -10
v 7 8 -14
v 8 0 17
v 8 0 -16
v 8 1 17
v 8 1 -16
v 8 4 17
v 8 4 -16
v 8 6 17
v 8 6 -16
v 9 0 -16
v 9 0 -18
v 9 12 -16
v 9 12 -18
v -8 0 17
v -8 1 17
v -8 4 17
v -8 6 17
v 8 0 17
v 8 1 17
v 8 4 17
v 8 6 17
v -6 6 15
v -6 7 15
v 6 6 15
v 6 7 15
v -7 6 14
v -7 7 14
v -6 6 14
v -6 7 14
v 6 6 14
v 6 7 14
v 7 6 14
v 7 7 14
v -7 7 -10
v -7 8 -10
v 7 7 -10
v 7 8 -10
v -9 0 -16
v -9 12 -16
v -8 0 -16
v -8 1 -16
v -8 4 -16
v -8 6 -16
v -7 6 -16
v 7 6 -16
v 8 0 -16
v 8 1 -16
v 8 4 -16
v 8 6 -16
v 9 0 -16
v 9 12 -16
v -7 6 -14
v -7 8 -14
v 7 6 -14
v 7 8 -14
v -9 0 -18
v -9 12 -18
v 9 0 -18
v 9 12 -18
v -8 0 17
v 8 0 17
v -9 0 -16
v -8 0 -16
v 8 0 -16
v 9 0 -16
v -8 0 -17
v 8 0 -17
v -9 0 -18
v 9 0 -18
v -8 6 17
v 8 6 17
v -7 6 16
v 7 6 16
v -6 6 15
v 6 6 15
v -7 6 14
v -6 6 14
v 6 6 14
v 7 6 14
v -7 6 13
v 7 6 13
v -7 6 11
v 7 6 11
v -7 6 10
v 7 6 10
v -7 6 8
v 7 6 8
v -7 6 7
v 7 6 7
v -7 6 5
v 7 6 5
v -7 6 4
v 7 6 4
v -7 6 2
v 7 6 2
v -7 6 1
v 7 6 1
v -7 6 -1
v 7 6 -1
v -7 6 -2
v 7 6 -2
v -7 6 -4
v 7 6 -4
v -7 6 -5
v 7 6 -5
v -7 6 -7
v 7 6 -7
v -7 6 -8
v 7 6 -8
v -7 6 -14
v 7 6 -14
v -8 6 -16
v -7 6 -16
v 7 6 -16
v 8 6 -16
v -6 7 15
v 6 7 15
v -7 7 14
v -6 7 14
v 6 7 14
v 7 7 14
v -7 7 13
v 7 7 13
v -7 7 11
v 7 7 11
v -7 7 10
v 7 7 10
v -7 7 8
v 7 7 8
v -7 7 7
v 7 7 7
v -7 7 5
v 7 7 5
v -7 7 4
v 7 7 4
v -7 7 2
v 7 7 2
v -7 7 1
v 7 7 1
v -7 7 -1
v 7 7 -1
v -7 7 -2
v 7 7 -2
v -7 7 -4
v 7 7 -4
v -7 7 -5
v 7 7 -5
v -7 7 -7
v 7 7 -7
v -7 7 -8
v 7 7 -8
v -7 7 -10
v 7 7 -10
v -7 8 -10
v 7 8 -10
v -7 8 -14
v 7 8 -14
v -9 12 -16
v 9 12 -16
v -9 12 -18
v 9 12 -18

# faces
f 3/2/1 2/2/1 1/2/1
f 4/2/1 2/2/1 3/2/1
f 7/1/1 6/1/1 5/1/1
f 8/1/1 6/1/1 7/1/1
f 9/3/1 8/3/1 7/3/1
f 10/3/1 8/3/1 9/3/1
f 11/4/1 10/4/1 9/4/1
f 12/4/1 10/4/1 11/4/1
f 30/6/1 14/6/1 13/6/1
f 31/5/1 15/5/1 14/5/1
f 31/6/1 14/6/1 30/6/1
f 32/6/1 16/6/1 15/6/1
f 32/5/1 15/5/1 31/5/1
f 33/5/1 17/5/1 16/5/1
f 33/6/1 16/6/1 32/6/1
f 34/6/1 18/6/1 17/6/1
f 34/5/1 17/5/1 33/5/1
f 35/5/1 19/5/1 18/5/1
f 35/6/1 18/6/1 34/6/1
f 36/6/1 20/6/1 19/6/1
f 36/5/1 19/5/1 35/5/1
f 37/5/1 21/5/1 20/5/1
f 37/6/1 20/6/1 36/6/1
f 38/6/1 22/6/1 21/6/1
f 38/5/1 21/5/1 37/5/1
f 39/5/1 23/5/1 22/5/1
f 39/6/1 22/6/1 38/6/1
f 40/6/1 24/6/1 23/6/1
f 40/5/1 23/5/1 39/5/1
f 41/5/1 25/5/1 24/5/1
f 41/6/1 24/6/1 40/6/1
f 42/6/1 26/6/1 25/6/1
f 42/5/1 25/5/1 41/5/1
f 43/5/1 27/5/1 26/5/1
f 43/6/1 26/6/1 42/6/1
f 44/6/1 28/6/1 27/6/1
f 44/5/1 27/5/1 43/5/1
f 45/5/1 29/5/1 28/5/1
f 45/6/1 28/6/1 44/6/1
f 46/5/1 29/5/1 45/5/1
f 47/5/1 29/5/1 46/5/1
f 48/5/1 29/5/1 47/5/1
f 51/6/1 50/6/1 49/6/1
f 52/6/1 50/6/1 51/6/1
f 53/6/2 54/6/2 55/6/2
f 55/6/2 54/6/2 56/6/2
f 57/6/2 58/6/2 74/6/2
f 58/5/2 59/5/2 75/5/2
f 74/6/2 58/6/2 75/6/2
f 59/6/2 60/6/2 76/6/2
f 75/5/2 59/5/2 76/5/2
f 60/5/2 61/5/2 77/5/2
f 76/6/2 60/6/2 77/6/2
f 61/6/2 62/6/2 78/6/2
f 77/5/2 61/5/2 78/5/2
f 62/5/2 63/5/2 79/5/2
f 78/6/2 62/6/2 79/6/2
f 63/6/2 64/6/2 80/6/2
f 79/5/2 63/5/2 80/5/2
f 64/5/2 65/5/2 81/5/2
f 80/6/2 64/6/2 81/6/2
f 65/6/2 66/6/2 82/6/2
f 81/5/2 65/5/2 82/5/2
f 66/5/2 67/5/2 83/5/2
f 82/6/2 66/6/2 83/6/2
f 67/6/2 68/6/2 84/6/2
f 83/5/2 67/5/2 84/5/2
f 68/5/2 69/5/2 85/5/2
f 84/6/2 68/6/2 85/6/2
f 69/6/2 70/6/2 86/6/2
f 85/5/2 69/5/2 86/5/2
f 70/5/2 71/5/2 87/5/2
f 86/6/2 70/6/2 87/6/2
f 71/6/2 72/6/2 88/6/2
f 87/5/2 71/5/2 88/5/2
f 72/5/2 73/5/2 89/5/2
f 88/6/2 72/6/2 89/6/2
f 89/5/2 73/5/2 90/5/2
f 90/5/2 73/5/2 91/5/2
f 91/5/2 73/5/2 92/5/2
f 93/1/2 94/1/2 95/1/2
f 95/1/2 94/1/2 96/1/2
f 95/3/2 96/3/2 97/3/2
f 97/3/2 96/3/2 98/3/2
f 97/4/2 98/4/2 99/4/2
f 99/4/2 98/4/2 100/4/2
f 101/2/2 102/2/2 103/2/2
f 103/2/2 102/2/2 104/2/2
f 109/1/3 106/1/3 105/1/3
f 110/3/3 107/3/3 106/3/3
f 110/1/3 106/1/3 109/1/3
f 111/4/3 108/4/3 107/4/3
f 111/3/3 107/3/3 110/3/3
f 112/4/3 108/4/3 111/4/3
f 115/6/3 114/6/3 113/6/3
f 116/6/3 114/6/3 115/6/3
f 119/6/3 118/6/3 117/6/3
f 120/6/3 118/6/3 119/6/3
f 123/6/3 122/6/3 121/6/3
f 124/6/3 122/6/3 123/6/3
f 127/5/3 126/5/3 125/5/3
f 128/5/3 126/5/3 127/5/3
f 131/2/3 130/2/3 129/2/3
f 132/2/3 130/2/3 131/2/3
f 133/2/3 130/2/3 132/2/3
f 134/2/3 130/2/3 133/2/3
f 135/2/3 130/2/3 134/2/3
f 136/2/3 130/2/3 135/2/3
f 140/2/3 130/2/3 136/2/3
f 141/2/3 139/2/3 138/2/3
f 141/2/3 140/2/3 139/2/3
f 141/2/3 138/2/3 137/2/3
f 142/2/3 130/2/3 140/2/3
f 142/2/3 140/2/3 141/2/3
f 143/5/4 144/5/4 145/5/4
f 145/5/4 144/5/4 146/5/4
f 147/2/4 148/2/4 149/2/4
f 149/2/4 148/2/4 150/2/4
f 154/1/5 152/1/5 151/1/5
f 155/1/5 152/1/5 154/1/5
f 157/2/5 154/2/5 153/2/5
f 157/1/5 155/1/5 154/1/5
f 158/2/5 156/2/5 155/2/5
f 158/1/5 155/1/5 157/1/5
f 159/2/5 157/2/5 153/2/5
f 159/2/5 158/2/5 157/2/5
f 160/2/5 156/2/5 158/2/5
f 160/2/5 158/2/5 159/2/5
f 161/4/6 162/4/6 163/4/6
f 163/4/6 162/4/6 164/4/6
f 163/3/6 164/3/6 165/3/6
f 165/3/6 164/3/6 166/3/6
f 161/4/6 163/4/6 167/4/6
f 163/3/6 165/3/6 167/3/6
f 167/3/6 165/3/6 168/3/6
f 166/3/6 164/3/6 169/3/6
f 164/4/6 162/4/6 170/4/6
f 169/3/6 164/3/6 170/3/6
f 161/4/6 167/4/6 171/4/6
f 170/4/6 162/4/6 172/4/6
f 161/4/6 171/4/6 173/4/6
f 172/4/6 162/4/6 174/4/6
f 161/4/6 173/4/6 175/4/6
f 174/4/6 162/4/6 176/4/6
f 161/4/6 175/4/6 177/4/6
f 176/4/6 162/4/6 178/4/6
f 161/4/6 177/4/6 179/4/6
f 178/4/6 162/4/6 180/4/6
f 161/4/6 179/4/6 181/4/6
f 180/4/6 162/4/6 182/4/6
f 161/4/6 181/4/6 183/4/6
f 182/4/6 162/4/6 184/4/6
f 161/4/6 183/4/6 185/4/6
f 184/4/6 162/4/6 186/4/6
f 161/4/6 185/4/6 187/4/6
f 186/4/6 162/4/6 188/4/6
f 161/4/6 187/4/6 189/4/6
f 188/4/6 162/4/6 190/4/6
f 161/4/6 189/4/6 191/4/6
f 190/4/6 162/4/6 192/4/6
f 161/4/6 191/4/6 193/4/6
f 192/4/6 162/4/6 194/4/6
f 161/4/6 193/4/6 195/4/6
f 194/4/6 162/4/6 196/4/6
f 161/4/6 195/4/6 197/4/6
f 196/4/6 162/4/6 198/4/6
f 161/4/6 197/4/6 199/4/6
f 198/4/6 162/4/6 200/4/6
f 161/4/6 199/4/6 201/4/6
f 200/4/6 162/4/6 202/4/6
f 161/4/6 201/4/6 203/4/6
f 201/3/6 202/3/6 204/3/6
f 203/4/6 201/4/6 204/4/6
f 202/4/6 162/4/6 205/4/6
f 204/3/6 202/3/6 205/3/6
f 205/4/6 162/4/6 206/4/6
f 207/6/6 208/6/6 210/6/6
f 210/6/6 208/6/6 211/6/6
f 209/6/6 210/6/6 213/6/6
f 211/6/6 212/6/6 213/6/6
f 210/6/6 211/6/6 213/6/6
f 213/6/6 212/6/6 214/6/6
f 213/5/6 214/5/6 215/5/6
f 215/5/6 214/5/6 216/5/6
f 215/6/6 216/6/6 217/6/6
f 217/6/6 216/6/6 218/6/6
f 217/5/6 218/5/6 219/5/6
f 219/5/6 218/5/6 220/5/6
f 219/6/6 220/6/6 221/6/6
f 221/6/6 220/6/6 222/6/6
f 221/5/6 222/5/6 223/5/6
f 223/5/6 222/5/6 224/5/6
f 223/6/6 224/6/6 225/6/6
f 225/6/6 224/6/6 226/6/6
f 225/5/6 226/5/6 227/5/6
f 227/5/6 226/5/6 228/5/6
f 227/6/6 228/6/6 229/6/6
f 229/6/6 228/6/6 230/6/6
f 229/5/6 230/5/6 231/5/6
f 231/5/6 230/5/6 232/5/6
f 231/6/6 232/6/6 233/6/6
f 233/6/6 232/6/6 234/6/6
f 233/5/6 234/5/6 235/5/6
f 235/5/6 234/5/6 236/5/6
f 235/6/6 236/6/6 237/6/6
f 237/6/6 236/6/6 238/6/6
f 237/5/6 238/5/6 239/5/6
f 239/5/6 238/5/6 240/5/6
f 239/6/6 240/6/6 241/6/6
f 241/6/6 240/6/6 242/6/6
f 241/5/6 242/5/6 243/5/6
f 243/5/6 242/5/6 244/5/6
f 245/5/6 246/5/6 247/5/6
f 247/5/6 246/5/6 248/5/6
f 249/2/6 250/2/6 251/2/6
f 251/2/6 250/2/6 252/2/6
